# This file uses centimeters as units for non-parametric coordinates.

mtllib dumpster_obj.mtl
g default
v -3.383610 6.132606 8.266261
v -3.383610 -6.653519 8.266261
v 3.141760 6.132606 6.187140
v 3.141760 -6.653519 6.187140
v 3.141760 6.132606 0.731042
v 3.141760 -6.653519 0.731042
v -3.383610 6.132606 0.731042
v -3.383610 -6.653519 0.731042
v 3.141760 6.132606 5.733153
v 3.141760 -6.653519 5.733153
v -3.383610 -6.653519 7.639279
v -3.383610 6.132606 7.639279
v 3.372564 -7.105770 5.643557
v 3.372564 6.584857 5.643557
v -3.614413 -7.105770 7.684523
v -3.614413 6.584857 7.684523
v 2.952101 5.737047 0.731042
v 2.952101 5.188291 0.731042
v 2.632760 5.186806 0.731042
v 2.633208 5.737047 0.731042
v -2.679021 5.030751 0.731042
v -2.679021 5.853554 0.731042
v -3.153650 5.030751 0.731042
v -3.153650 5.853555 0.731042
v -3.076354 -5.485145 0.731042
v -2.744737 -5.485145 0.731042
v -2.744737 -6.107849 0.731042
v -3.076354 -6.107849 0.731042
v 2.523981 -6.415141 0.731042
v 2.523981 -5.804440 0.731042
v 2.851611 -5.804440 0.731042
v 2.851612 -6.415141 0.731042
v 2.618624 -6.238728 0.050828
v 2.618624 -5.980853 0.050828
v 2.756969 -5.980853 0.050828
v 2.756969 -6.238728 0.050828
v 2.859029 5.576886 0.050828
v 2.859029 5.348452 0.050828
v 2.726281 5.348452 0.050828
v 2.726281 5.576886 0.050828
v -2.997005 -5.634145 0.050828
v -2.824086 -5.634145 0.050828
v -2.824086 -5.958849 0.050828
v -2.997005 -5.958849 0.050828
v -2.797295 5.235788 0.050828
v -2.797295 5.648517 0.050828
v -3.035375 5.235788 0.050828
v -3.035375 5.648517 0.050828
v 3.303038 6.448623 6.146974
v 3.372564 6.584857 5.995245
v -3.614413 -7.105770 8.206654
v -3.519045 -6.964361 8.318838
v -3.614413 6.584857 8.201164
v -3.519385 6.444405 8.320595
v 3.372564 -7.105770 5.995245
v 3.303038 -6.969536 6.146974
v 2.525941 -6.653519 0.731042
v 2.729326 -6.653519 5.853629
v 2.778126 -7.105770 5.817198
v 2.801734 -7.105769 6.175916
v 2.673406 6.132606 0.731042
v 2.673408 6.132606 5.869964
v 2.871080 6.584857 5.790045
v 2.871078 6.584857 6.153574
v 2.813365 6.448321 6.302983
v 2.673408 6.132606 6.336367
v 2.673408 -6.653520 6.336367
v 2.813387 -6.969164 6.302857
v -2.763807 6.132606 0.731042
v -2.763807 6.132606 7.458228
v -2.950766 6.584857 7.490664
v -2.950766 6.584857 7.991638
v -2.871367 6.444806 8.114137
v -2.763807 6.132606 8.068780
v -2.763807 -6.653519 8.068780
v -2.871059 -6.964852 8.112546
v -2.957861 -7.105770 7.998853
v -2.960278 -7.105770 7.493443
v -2.758085 -6.653519 7.456557
v -2.778897 -6.653519 0.731042
v 3.141760 -5.377834 0.731042
v 3.141760 -5.377834 5.733153
v 3.372564 -5.739842 5.643557
v 3.372564 -5.739847 5.995245
v 3.303038 -5.630793 6.146974
v 3.141760 -5.377834 6.187140
v 2.673408 -5.377834 6.336367
v -2.763807 -5.377834 8.068780
v -3.383610 -5.377834 8.266261
v -3.519078 -5.626558 8.319013
v -3.614413 -5.739842 8.206107
v -3.614413 -5.739847 7.684523
v -3.383610 -5.377838 7.639279
v -3.383610 -5.377834 0.731042
v 3.141760 5.108091 0.731042
v 3.141760 5.108091 5.733153
v 3.372564 5.487867 5.643557
v 3.372564 5.487872 5.995245
v 3.303038 5.373466 6.146974
v 3.141760 5.108091 6.187140
v 2.673408 5.108091 6.336367
v -2.763807 5.108092 8.068780
v -3.383610 5.108091 8.266262
v -3.519358 5.370005 8.320454
v -3.614413 5.487868 8.201604
v -3.614413 5.487872 7.684523
v -3.383610 5.108095 7.639279
v -3.383610 5.108091 0.731042
vt 0.578156 0.450893
vt 0.520547 0.453181
vt 0.502521 0.391469
vt 0.578156 0.391235
vt 0.578156 0.457819
vt 0.521902 0.457819
vt 0.500466 0.384434
vt 0.578156 0.384434
vt 0.667174 0.459681
vt 0.610926 0.458809
vt 0.611008 0.453542
vt 0.668794 0.454438
vt 0.611956 0.392402
vt 0.687602 0.393575
vt 0.612064 0.385432
vt 0.689746 0.386637
vt 0.662437 0.163690
vt 0.676374 0.158553
vt 0.683121 0.188866
vt 0.677754 0.188946
vt 0.659942 0.119773
vt 0.645831 0.120071
vt 0.649267 0.089718
vt 0.655226 0.089592
vt 0.682268 0.083631
vt 0.668513 0.082908
vt 0.674155 0.053014
vt 0.679872 0.053320
vt 0.726599 0.291126
vt 0.723543 0.300637
vt 0.705360 0.290662
vt 0.705553 0.286614
vt 0.662000 0.209542
vt 0.676387 0.204024
vt 0.684250 0.234392
vt 0.677484 0.234087
vt 0.659363 0.156965
vt 0.645041 0.157268
vt 0.647831 0.127121
vt 0.655299 0.126963
vt 0.668705 0.330116
vt 0.648184 0.338088
vt 0.641877 0.306261
vt 0.650994 0.305927
vt 0.673167 0.251660
vt 0.693479 0.250158
vt 0.690665 0.280935
vt 0.680477 0.281688
vt 0.572210 0.071550
vt 0.590236 0.073392
vt 0.591570 0.305016
vt 0.578498 0.300480
vt 0.577050 0.040372
vt 0.564877 0.050856
vt 0.580302 0.332936
vt 0.574752 0.321573
vt 0.565031 0.074561
vt 0.571413 0.299254
vt 0.560123 0.054762
vt 0.569498 0.316533
vt 0.041406 0.307257
vt 0.054337 0.301673
vt 0.057571 0.319743
vt 0.051972 0.330944
vt 0.042381 0.075057
vt 0.060262 0.073116
vt 0.062878 0.314927
vt 0.061432 0.297791
vt 0.067677 0.051982
vt 0.055330 0.042269
vt 0.067637 0.075736
vt 0.072549 0.055846
vt 0.666749 0.633594
vt 0.610495 0.633594
vt 0.610495 0.619247
vt 0.666749 0.619247
vt 0.610495 0.501321
vt 0.666749 0.501321
vt 0.610495 0.489800
vt 0.666749 0.489800
vt 0.585984 0.631301
vt 0.508293 0.631301
vt 0.508293 0.616955
vt 0.585984 0.616954
vt 0.508293 0.499029
vt 0.585984 0.499029
vt 0.508293 0.487507
vt 0.585984 0.487507
vt 0.644490 0.183211
vt 0.671553 0.198065
vt 0.684108 0.109371
vt 0.665430 0.085200
vt 0.710709 0.313242
vt 0.699799 0.293570
vt 0.646824 0.073278
vt 0.665150 0.049017
vt 0.684643 0.147770
vt 0.668482 0.122168
vt 0.643503 0.229690
vt 0.669755 0.245605
vt 0.688808 0.300151
vt 0.659018 0.290497
vt 0.642659 0.269431
vt 0.665174 0.290602
vt 0.525282 0.327347
vt 0.520944 0.321070
vt 0.097034 0.325262
vt 0.101653 0.319034
vt 0.525750 0.340537
vt 0.096343 0.338410
vt 0.519961 0.044860
vt 0.521358 0.025161
vt 0.102877 0.046393
vt 0.100959 0.026847
vt 0.515570 0.050440
vt 0.107466 0.052103
vt 0.558639 0.311660
vt 0.511159 0.314828
vt 0.510907 0.296360
vt 0.559249 0.293972
vt 0.111971 0.312879
vt 0.112343 0.294429
vt 0.506031 0.080549
vt 0.553472 0.080025
vt 0.073884 0.310247
vt 0.073563 0.292658
vt 0.117448 0.082148
vt 0.506255 0.055936
vt 0.550700 0.058663
vt 0.079234 0.081143
vt 0.117264 0.057553
vt 0.081899 0.059727
vt 0.677754 0.200493
vt 0.326755 0.634608
vt 0.331739 0.631883
vt 0.345791 0.631884
vt 0.341803 0.634612
vt 0.326749 0.627780
vt 0.331737 0.627150
vt 0.461309 0.631884
vt 0.465493 0.634611
vt 0.326749 0.561919
vt 0.331737 0.564172
vt 0.472594 0.631882
vt 0.477578 0.634607
vt 0.326756 0.554406
vt 0.331740 0.556995
vt 0.472596 0.626509
vt 0.477583 0.628847
vt 0.341803 0.554402
vt 0.345791 0.556993
vt 0.472596 0.564107
vt 0.477584 0.562028
vt 0.465493 0.554402
vt 0.461309 0.556993
vt 0.472594 0.556995
vt 0.477578 0.554407
vt 0.698622 0.289428
vt 0.677108 0.248326
vt 0.648183 0.287173
vt 0.349778 0.458795
vt 0.348571 0.462251
vt 0.341568 0.462251
vt 0.335432 0.458795
vt 0.466834 0.461381
vt 0.467704 0.458795
vt 0.341568 0.465980
vt 0.335432 0.465596
vt 0.466834 0.466719
vt 0.348571 0.465980
vt 0.479226 0.458795
vt 0.476088 0.461381
vt 0.338113 0.525232
vt 0.335432 0.525255
vt 0.468589 0.526456
vt 0.344981 0.525232
vt 0.479226 0.465766
vt 0.476088 0.466719
vt 0.338113 0.528917
vt 0.335432 0.532180
vt 0.474777 0.526461
vt 0.468606 0.530047
vt 0.344981 0.528917
vt 0.479226 0.526913
vt 0.349778 0.532180
vt 0.467704 0.532180
vt 0.479226 0.532180
vt 0.474777 0.530047
vn 0.284756 0.005804 0.958583
vn 0.282605 -0.000000 0.959236
vn 0.303584 0.000000 0.952805
vn 0.303551 0.007440 0.952786
vn 1.000000 0.000000 0.000000
vn 1.000000 0.000000 0.000000
vn 1.000000 -0.000000 0.000000
vn 1.000000 -0.000000 0.000000
vn 0.000000 0.000000 -1.000000
vn 0.000000 0.000000 -1.000000
vn 0.000000 0.000000 -1.000000
vn 0.000000 0.000000 -1.000000
vn -1.000000 0.000000 0.000000
vn -1.000000 0.000000 0.000000
vn -1.000000 0.000000 0.000000
vn -1.000000 0.000000 0.000000
vn 0.000000 -1.000000 -0.000000
vn 0.000000 -1.000000 -0.000000
vn 0.000000 -1.000000 -0.000000
vn 0.000000 -1.000000 -0.000000
vn 0.000000 1.000000 0.000000
vn 0.000000 1.000000 0.000000
vn 0.000000 1.000000 0.000000
vn 0.000000 1.000000 0.000000
vn -0.361884 0.000000 -0.932223
vn -0.361884 0.000000 -0.932223
vn -0.361885 0.000000 -0.932223
vn -0.361885 0.000000 -0.932223
vn -0.280082 0.047016 -0.958824
vn -0.280082 0.047016 -0.958824
vn -0.280082 0.047016 -0.958824
vn -0.280082 0.047016 -0.958824
vn -0.192363 0.000000 -0.981324
vn -0.192363 0.000000 -0.981324
vn -0.192363 0.000000 -0.981324
vn -0.192363 0.000000 -0.981324
vn -0.280081 -0.047017 -0.958824
vn -0.280081 -0.047017 -0.958824
vn -0.280082 -0.047018 -0.958824
vn -0.280082 -0.047018 -0.958824
vn 0.000000 0.000000 -1.000000
vn 0.000000 0.000000 -1.000000
vn 0.000000 0.000000 -1.000000
vn 0.000000 0.000000 -1.000000
vn 0.000000 0.000000 -1.000000
vn 0.000000 0.000000 -1.000000
vn 0.000000 0.000000 -1.000000
vn 0.000000 0.000000 -1.000000
vn 0.000000 0.000000 -1.000000
vn 0.000000 0.000000 -1.000000
vn 0.000000 0.000000 -1.000000
vn 0.000000 0.000000 -1.000000
vn 0.000000 0.000000 -1.000000
vn -0.000000 0.000000 -1.000000
vn -0.000000 0.000000 -1.000000
vn -0.000000 0.000000 -1.000000
vn -0.000000 0.000000 -1.000000
vn -0.000000 0.000000 -1.000000
vn -0.000000 0.000000 -1.000000
vn 0.000000 0.000000 -1.000000
vn 0.000000 0.000000 -1.000000
vn 0.000000 0.000000 -1.000000
vn 0.000000 0.000000 -1.000000
vn -0.000000 0.000000 -1.000000
vn 0.000000 0.000000 -1.000000
vn 0.000000 0.000000 -1.000000
vn 0.000000 0.000000 -1.000000
vn 0.000000 0.000000 -1.000000
vn -0.990459 0.000000 -0.137809
vn -0.990459 0.000000 -0.137809
vn -0.990459 0.000000 -0.137809
vn -0.990459 0.000000 -0.137809
vn 0.000000 0.967976 -0.251045
vn 0.000000 0.967976 -0.251045
vn 0.000000 0.967976 -0.251045
vn 0.000000 0.967976 -0.251045
vn 0.990459 0.000000 -0.137809
vn 0.990459 0.000000 -0.137809
vn 0.990459 0.000000 -0.137809
vn 0.990459 0.000000 -0.137809
vn 0.000001 -0.967976 -0.251043
vn 0.000001 -0.967976 -0.251043
vn 0.000001 -0.967976 -0.251043
vn 0.000001 -0.967976 -0.251043
vn 0.990768 0.000000 -0.135565
vn 0.990768 0.000000 -0.135565
vn 0.990768 0.000000 -0.135565
vn 0.990768 0.000000 -0.135565
vn 0.003197 -0.973140 -0.230193
vn 0.003197 -0.973140 -0.230193
vn 0.003197 -0.973140 -0.230193
vn 0.003197 -0.973140 -0.230193
vn -0.990724 0.000570 -0.135886
vn -0.990724 0.000570 -0.135886
vn -0.990724 0.000570 -0.135886
vn -0.990724 0.000570 -0.135886
vn 0.000000 0.973382 -0.229189
vn 0.000000 0.973382 -0.229189
vn 0.000000 0.973382 -0.229189
vn 0.000000 0.973382 -0.229189
vn 0.000001 0.976839 -0.213977
vn 0.000001 0.976839 -0.213977
vn 0.000001 0.976839 -0.213977
vn 0.000001 0.976839 -0.213977
vn 0.993265 0.000001 -0.115867
vn 0.993265 0.000001 -0.115867
vn 0.993265 0.000001 -0.115867
vn 0.993265 0.000001 -0.115867
vn 0.000000 -0.976839 -0.213975
vn 0.000000 -0.976839 -0.213975
vn 0.000000 -0.976839 -0.213975
vn 0.000000 -0.976839 -0.213975
vn -0.993265 -0.000001 -0.115867
vn -0.993265 -0.000001 -0.115867
vn -0.993265 -0.000001 -0.115867
vn -0.993265 -0.000001 -0.115867
vn 0.985218 0.000000 -0.171307
vn 0.985218 0.000000 -0.171307
vn 0.985218 0.000000 -0.171307
vn 0.985218 0.000000 -0.171307
vn 0.000000 -0.957449 -0.288603
vn 0.000000 -0.957449 -0.288603
vn 0.000000 -0.957449 -0.288603
vn 0.000000 -0.957449 -0.288603
vn -0.985218 0.000000 -0.171307
vn -0.985218 0.000000 -0.171307
vn -0.985218 0.000000 -0.171307
vn -0.985218 0.000000 -0.171307
vn 0.000001 0.957449 -0.288604
vn 0.000001 0.957449 -0.288604
vn 0.000001 0.957449 -0.288604
vn 0.000001 0.957449 -0.288604
vn 0.223228 0.673660 0.704522
vn 0.223228 0.673660 0.704522
vn 0.218549 0.690245 0.689782
vn 0.218020 0.692070 0.688118
vn 0.909103 0.000000 0.416572
vn 0.909103 0.000000 0.416572
vn 0.909103 0.000000 0.416572
vn 0.909103 0.000000 0.416572
vn 0.221086 -0.681819 0.697312
vn 0.221163 -0.681546 0.697555
vn 0.223564 -0.672846 0.705193
vn 0.223564 -0.672846 0.705193
vn -0.772240 0.000078 0.635331
vn -0.770530 0.000078 0.637403
vn -0.763023 0.000079 0.646372
vn -0.763023 0.000079 0.646372
vn 1.000000 -0.000000 0.000000
vn 1.000000 -0.000000 0.000000
vn 1.000000 0.000000 0.000000
vn 1.000000 0.000000 0.000000
vn 0.000000 -1.000000 0.000003
vn 0.000000 -1.000000 0.000003
vn 0.000000 -1.000000 0.000003
vn 0.000000 -1.000000 0.000003
vn -1.000000 -0.000000 0.000000
vn -1.000000 -0.000000 0.000000
vn -1.000000 0.000000 0.000000
vn -1.000000 0.000000 0.000000
vn 0.000000 1.000000 0.000000
vn 0.000000 1.000000 0.000000
vn 0.000000 1.000000 0.000000
vn 0.000000 1.000000 0.000000
vn 0.241669 -0.000000 0.970359
vn 0.280143 0.020881 0.959731
vn 0.303326 0.031699 0.952359
vn 0.320044 -0.000015 0.947403
vn 0.365191 -0.000058 0.930933
vn 0.318932 0.021541 0.947533
vn 0.317217 0.005417 0.948337
vn 0.303410 -0.033812 0.952260
vn 0.303570 -0.009406 0.952763
vn 0.285539 -0.006982 0.958342
vn 0.283294 -0.022718 0.958764
vn -0.000000 0.000000 -1.000000
vn 0.000000 0.000000 -1.000000
vn 0.000000 0.000000 -1.000000
vn -0.000000 0.000000 -1.000000
vn 0.000000 0.000000 -1.000000
vn -0.000000 0.000000 -1.000000
vn 0.000000 0.000000 -1.000000
vn 0.000000 0.000000 -1.000000
vn 0.000001 -1.000000 0.000000
vn 0.000001 -1.000000 0.000000
vn -0.280082 0.047017 -0.958824
vn -0.280082 0.047017 -0.958824
vn 0.000000 -1.000000 0.000002
vn 0.000000 -1.000000 0.000002
vn 0.000000 1.000000 0.000000
vn 0.000000 1.000000 0.000000
vn -0.280082 -0.047018 -0.958824
vn -0.280083 -0.047018 -0.958824
vn -0.000000 1.000000 0.000000
vn -0.000000 1.000000 0.000000
vn 0.217103 0.695218 0.685229
vn 0.217349 0.694378 0.686002
vn 0.303410 -0.033813 0.952260
vn 0.303571 -0.009133 0.952765
vn 0.303584 0.000000 0.952805
vn 0.303552 0.007150 0.952788
vn 0.303332 0.031071 0.952378
vn 0.220693 -0.683214 0.696070
vn 0.220539 -0.683758 0.695585
vn 0.000000 0.000000 -1.000000
vn 0.000000 0.000000 -1.000000
vn 0.000000 0.000000 -1.000000
vn 0.000000 1.000000 0.000000
vn 0.000000 1.000000 0.000000
vn -0.280083 -0.047018 -0.958824
vn -0.280083 -0.047018 -0.958824
vn -0.000001 1.000000 0.000000
vn -0.000001 1.000000 0.000000
vn 0.212495 0.710619 0.670721
vn 0.212495 0.710619 0.670721
vn 0.318607 -0.007525 0.947857
vn 0.318607 -0.026331 0.947521
vn 0.218274 -0.691650 0.688460
vn 0.218274 -0.691650 0.688460
vn 0.000000 -1.000000 0.000000
vn 0.000000 -1.000000 0.000000
vn -0.280081 0.047017 -0.958824
vn -0.280081 0.047017 -0.958824
vn 0.000000 -1.000000 -0.000000
vn 0.000000 -1.000000 -0.000000
vn 0.000000 0.000000 -1.000000
vn 0.000000 0.000000 -1.000000
vn 1.000000 -0.000000 0.000000
vn 1.000000 -0.000000 0.000000
vn -0.361885 0.000000 -0.932223
vn -0.361885 -0.000000 -0.932223
vn 1.000000 -0.000000 0.000000
vn 1.000000 -0.000000 0.000000
vn 0.909102 -0.000000 0.416573
vn 0.909103 -0.000000 0.416572
vn 0.241669 -0.000000 0.970359
vn 0.282274 -0.000000 0.959334
vn 0.303584 0.000000 0.952805
vn 0.303584 0.000000 0.952805
vn 0.320383 -0.000015 0.947288
vn 0.368234 -0.000058 0.929733
vn -0.773044 0.000078 0.634352
vn -0.774462 0.000077 0.632621
vn -1.000000 -0.000000 0.000000
vn -1.000000 -0.000000 0.000000
vn -0.192363 0.000000 -0.981324
vn -0.192363 0.000000 -0.981324
vn -1.000000 0.000000 0.000000
vn -1.000000 0.000000 0.000000
vn 1.000000 0.000000 0.000000
vn 1.000000 0.000000 0.000000
vn -0.361883 -0.000000 -0.932223
vn -0.361883 -0.000000 -0.932223
vn 1.000000 0.000000 0.000000
vn 1.000000 0.000000 0.000000
vn 0.909102 -0.000000 0.416573
vn 0.909102 -0.000000 0.416573
vn -0.781692 0.000076 0.623665
vn -0.781692 0.000076 0.623665
vn -1.000000 0.000000 0.000000
vn -1.000000 0.000000 0.000000
vn -0.192364 0.000000 -0.981324
vn -0.192364 0.000000 -0.981324
vn -1.000000 0.000000 0.000000
vn -1.000000 0.000000 0.000000
vn 0.000000 0.000000 -1.000000
vn 0.000000 0.000000 -1.000000
vn 0.000000 0.000000 -1.000000
vn 0.000000 0.000000 -1.000000
vn 0.000000 0.000000 -1.000000
vn -0.000000 0.000000 -1.000000
vn -0.000000 0.000000 -1.000000
s 1
g dumpster
usemtl initialShadingGroup
f 4/117/1 86/118/2 87/119/3 67/120/4
s 2
f 10/73/5 6/74/6 81/75/7 82/76/8
s off
f 33/90/9 34/20/10 35/19/11 36/133/12
s 3
f 8/81/13 11/82/14 93/83/15 94/84/16
s 4
f 57/1/17 58/2/18 79/3/19 80/4/20
s 5
f 9/9/21 5/10/22 61/11/23 62/12/24
s 6
f 13/134/25 10/135/26 82/136/27 83/137/28
s 7
f 58/139/29 59/138/30 78/142/31 79/143/32
s 8
f 11/147/33 15/146/34 92/150/35 93/151/36
s 9
f 14/145/37 9/144/38 62/148/39 63/149/40
s off
f 37/31/41 38/94/42 39/158/43 40/32/44
f 41/36/45 42/35/46 43/159/47 44/100/48
f 46/102/49 45/44/50 47/43/51 48/160/52
s 10
f 94/161/53 25/162/54 28/163/55 8/164/56
f 21/169/57 19/175/58 30/176/59 26/170/60
f 18/182/61 95/186/62 81/185/63 31/183/64
f 29/173/65 57/174/66 80/168/67 27/167/68
s off
f 29/89/69 30/17/70 34/20/71 33/90/72
f 30/17/73 31/18/74 35/19/75 34/20/76
f 31/91/77 32/21/78 36/24/79 35/92/80
f 32/21/81 29/22/82 33/23/83 36/24/84
f 17/30/85 18/93/86 38/94/87 37/31/88
f 18/25/89 19/26/90 39/27/91 38/28/92
f 19/26/93 20/95/94 40/96/95 39/27/96
f 20/29/97 17/30/98 37/31/99 40/32/100
f 25/33/101 26/34/102 42/35/103 41/36/104
f 26/97/105 27/37/106 43/40/107 42/98/108
f 27/37/109 28/38/110 44/39/111 43/40/112
f 28/99/113 25/33/114 41/36/115 44/100/116
f 22/101/117 21/41/118 45/44/119 46/102/120
f 21/41/121 23/42/122 47/43/123 45/44/124
f 23/103/125 24/45/126 48/48/127 47/104/128
f 24/45/129 22/46/130 46/47/131 48/48/132
s 14
f 49/67/133 50/63/134 64/62/135 65/68/136
s 15
f 84/105/137 85/106/138 56/60/139 55/56/140
s 16
f 68/58/141 60/52/142 55/56/143 56/60/144
s 17
f 90/115/145 91/111/146 51/54/147 52/59/148
s 18
f 83/109/149 84/105/150 55/56/151 13/55/152
s 19
f 77/49/153 78/50/154 59/51/155 60/52/156
s 20
f 91/111/157 92/112/158 15/53/159 51/54/160
s 21
f 63/61/161 64/62/162 50/63/163 14/64/164
s 1
f 85/106/165 86/118/2 4/117/1 56/60/166
f 67/120/4 68/58/167 56/60/166 4/117/1
f 89/128/168 90/115/169 52/59/170 2/129/171
f 65/68/172 66/126/173 3/125/174 49/67/175
s 10
f 21/169/57 26/170/60 25/162/54 23/165/176
f 7/171/177 69/177/178 22/178/179 24/172/180
f 20/181/181 19/175/58 21/169/57 22/178/179
f 30/176/59 29/173/65 27/167/68 26/170/60
f 18/182/61 31/183/64 30/176/59 19/175/58
f 29/173/65 32/179/182 6/180/183 57/174/66
s 4
f 6/5/184 10/6/185 58/2/18 57/1/17
s 7
f 10/135/186 13/134/187 59/138/30 58/139/29
s 19
f 60/52/156 59/51/155 13/55/188 55/56/189
s 5
f 62/12/24 61/11/23 69/13/190 70/14/191
s 9
f 63/149/40 62/148/39 70/152/192 71/153/193
s 21
f 71/65/194 72/66/195 64/62/162 63/61/161
s 14
f 65/68/136 64/62/135 72/66/196 73/71/197
s 1
f 73/71/198 74/130/199 66/126/173 65/68/172
f 67/120/4 87/119/3 88/123/200 75/124/201
f 75/124/201 76/57/202 68/58/167 67/120/4
s 16
f 76/57/203 77/49/204 60/52/142 68/58/141
s 10
f 20/181/181 61/184/205 5/187/206 17/188/207
s 5
f 70/14/191 69/13/190 7/15/208 12/16/209
s 9
f 71/153/193 70/152/192 12/156/210 16/157/211
s 21
f 53/69/212 72/66/195 71/65/194 16/70/213
s 14
f 73/71/197 72/66/196 53/69/214 54/72/215
s 1
f 1/132/216 74/130/199 73/71/198 54/72/217
f 75/124/201 88/123/200 89/128/168 2/129/171
f 52/59/170 76/57/202 75/124/201 2/129/171
s 16
f 52/59/218 51/54/219 77/49/204 76/57/203
s 19
f 15/53/220 78/50/154 77/49/153 51/54/221
s 7
f 79/143/32 78/142/31 15/146/222 11/147/223
s 4
f 80/4/20 79/3/19 11/7/224 8/8/225
s 10
f 27/167/68 80/168/67 8/164/226 28/163/227
f 22/178/179 69/177/178 61/184/205 20/181/181
s 2
f 82/76/8 81/75/7 95/77/228 96/78/229
s 6
f 83/137/28 82/136/27 96/140/230 97/141/231
s 18
f 97/110/232 98/107/233 84/105/150 83/109/149
s 15
f 98/107/234 99/108/235 85/106/138 84/105/137
s 1
f 99/108/236 100/121/237 86/118/2 85/106/165
f 87/119/3 86/118/2 100/121/237 101/122/238
f 88/123/200 87/119/3 101/122/238 102/127/239
f 89/128/168 88/123/200 102/127/239 103/131/240
f 103/131/240 104/116/241 90/115/169 89/128/168
s 17
f 104/116/242 105/113/243 91/111/146 90/115/145
s 20
f 105/113/244 106/114/245 92/112/158 91/111/157
s 8
f 93/151/36 92/150/35 106/154/246 107/155/247
s 3
f 94/84/16 93/83/15 107/85/248 108/86/249
s 2
f 96/78/229 95/77/228 5/79/250 9/80/251
s 6
f 97/141/231 96/140/230 9/144/252 14/145/253
s 18
f 50/63/254 98/107/233 97/110/232 14/64/255
s 15
f 50/63/256 49/67/257 99/108/235 98/107/234
s 1
f 3/125/174 100/121/237 99/108/236 49/67/175
f 101/122/238 100/121/237 3/125/174 66/126/173
f 102/127/239 101/122/238 66/126/173 74/130/199
f 103/131/240 102/127/239 74/130/199 1/132/216
f 54/72/217 104/116/241 103/131/240 1/132/216
s 17
f 54/72/258 53/69/259 105/113/243 104/116/242
s 20
f 16/70/260 106/114/245 105/113/244 53/69/261
s 8
f 107/155/247 106/154/246 16/157/262 12/156/263
s 3
f 108/86/249 107/85/248 12/87/264 7/88/265
s 10
f 23/165/176 108/166/266 7/171/267 24/172/268
f 23/165/176 25/162/54 94/161/53 108/166/266
f 31/183/64 81/185/63 6/180/269 32/179/270
f 5/187/271 95/186/62 18/182/61 17/188/272
