# This file uses centimeters as units for non-parametric coordinates.

mtllib Trash_lid_obj.mtl
g default
v 1.329192 -0.375628 -0.020933
v 0.854551 -1.085168 -0.020932
v 0.053499 -1.380212 -0.020932
v -0.767986 -1.148061 -0.020933
v -1.296127 -0.477390 -0.020933
v -1.329192 0.375628 -0.020933
v -0.854550 1.085168 -0.020932
v -0.053499 1.380212 -0.020932
v 0.767986 1.148061 -0.020933
v 1.296127 0.477390 -0.020933
v 1.590459 -0.449462 -0.060069
v 1.022521 -1.298470 -0.060069
v 0.064015 -1.651508 -0.060069
v -0.918942 -1.373725 -0.060069
v -1.550895 -0.571226 -0.060069
v -1.590459 0.449462 -0.060069
v -1.022521 1.298470 -0.060069
v -0.064016 1.651507 -0.060069
v 0.918942 1.373725 -0.060069
v 1.550895 0.571226 -0.060069
v 1.590459 -0.449462 0.121765
v 1.022521 -1.298470 0.121765
v 0.064015 -1.651507 0.121765
v -0.918942 -1.373725 0.121765
v -1.550895 -0.571226 0.121765
v -1.590458 0.449462 0.121765
v -1.022521 1.298470 0.121765
v -0.064015 1.651507 0.121765
v 0.918942 1.373725 0.121765
v 1.550895 0.571226 0.121765
v 1.096129 -0.309765 0.321034
v 0.704712 -0.894894 0.321034
v 0.044118 -1.138204 0.321035
v -0.633327 -0.946759 0.321034
v -1.068863 -0.393684 0.321034
v -1.096129 0.309765 0.321034
v -0.704713 0.894893 0.321035
v -0.044119 1.138203 0.321034
v 0.633326 0.946758 0.321034
v 1.068863 0.393684 0.321034
v 0.412701 -0.116629 0.445304
v 0.265329 -0.336934 0.445304
v 0.016611 -0.428542 0.445304
v -0.238452 -0.356462 0.445304
v -0.402436 -0.148225 0.445304
v -0.412701 0.116629 0.445304
v -0.265329 0.336934 0.445305
v -0.016611 0.428542 0.445304
v 0.238452 0.356462 0.445304
v 0.402435 0.148225 0.445305
v -0.572082 -0.115722 0.418233
v -0.573319 0.055212 0.418233
v -0.432311 -0.107987 0.447783
v -0.438985 0.064200 0.447784
v 0.586067 0.121079 0.402775
v 0.590324 -0.070929 0.402776
v 0.425878 0.114667 0.447783
v 0.432552 -0.057521 0.447784
v -0.572083 -0.115722 0.606890
v -0.573319 0.055212 0.606890
v -0.432311 -0.107987 0.636441
v -0.438985 0.064200 0.636442
v 0.586068 0.121080 0.591434
v 0.590324 -0.070929 0.591434
v 0.425878 0.114667 0.636441
v 0.432551 -0.057521 0.636441
v -0.572083 -0.115722 0.686818
v -0.573319 0.055212 0.686819
v -0.432311 -0.107987 0.716370
v -0.438985 0.064200 0.716370
v 0.586068 0.121080 0.671362
v 0.590324 -0.070929 0.671362
v 0.425876 0.114666 0.716369
v 0.432552 -0.057521 0.716370
v -0.222072 -0.079943 0.668479
v -0.229066 0.078713 0.668479
v -0.229066 0.078713 0.745933
v -0.222071 -0.079943 0.745934
v 0.210954 0.097465 0.667242
v 0.221934 -0.068260 0.667242
v 0.221934 -0.068260 0.747170
v 0.210954 0.097465 0.747171
v -0.006832 -0.073959 0.685981
v -0.006830 -0.073959 0.764626
v -0.018660 0.087383 0.764626
v -0.018661 0.087383 0.685981
v -0.696681 -0.256601 0.094789
v -0.716052 0.243165 0.094790
v 0.512643 0.695719 0.094790
v 0.822071 0.302785 0.094789
v -0.387253 -0.649535 0.094790
v 0.841443 -0.196981 0.094790
v -0.437970 0.658871 0.094790
v 0.031351 0.831731 0.094790
v 0.563360 -0.612687 0.094790
v 0.094039 -0.785547 0.094790
vt 0.961386 0.418311
vt 0.927188 0.389276
vt 0.932696 0.375942
vt 0.973513 0.410349
vt 0.971434 0.461790
vt 0.985896 0.462735
vt 0.954032 0.503472
vt 0.965233 0.512184
vt 0.915675 0.527621
vt 0.919908 0.541508
vt 0.870718 0.524702
vt 0.865952 0.538551
vt 0.835232 0.495105
vt 0.822958 0.503079
vt 0.825143 0.450610
vt 0.810575 0.448480
vt 0.843338 0.409182
vt 0.832983 0.399228
vt 0.882427 0.385703
vt 0.879433 0.371685
vt 0.934888 0.369512
vt 0.978988 0.406335
vt 0.992710 0.463264
vt 0.971023 0.515687
vt 0.923545 0.547194
vt 0.864341 0.545207
vt 0.817449 0.507038
vt 0.803855 0.447289
vt 0.828339 0.394240
vt 0.877792 0.365117
vt 0.603099 0.432273
vt 0.632630 0.391627
vt 0.647482 0.412068
vt 0.627129 0.440081
vt 0.603099 0.482514
vt 0.627129 0.474706
vt 0.632630 0.523160
vt 0.647482 0.502719
vt 0.680413 0.538686
vt 0.680413 0.513419
vt 0.728195 0.523160
vt 0.713344 0.502719
vt 0.757726 0.482514
vt 0.733696 0.474706
vt 0.757726 0.432273
vt 0.733696 0.440081
vt 0.728195 0.391627
vt 0.713344 0.412068
vt 0.680413 0.376102
vt 0.680413 0.401368
vt 0.668014 0.440328
vt 0.660351 0.450875
vt 0.660351 0.463912
vt 0.668014 0.474459
vt 0.680413 0.478488
vt 0.623384 0.331127
vt 0.619461 0.323470
vt 0.633337 0.319354
vt 0.634440 0.335116
vt 0.692811 0.474459
vt 0.700474 0.463912
vt 0.700474 0.450875
vt 0.692811 0.440328
vt 0.680413 0.436299
vt 0.733515 0.322165
vt 0.731348 0.335659
vt 0.719807 0.338124
vt 0.720137 0.319136
vt 0.684797 0.485765
vt 0.692707 0.482916
vt 0.682778 0.479183
vt 0.690838 0.476563
vt 0.676038 0.428285
vt 0.667104 0.431353
vt 0.678465 0.435788
vt 0.670404 0.438407
vt 0.613642 0.336953
vt 0.611491 0.320971
vt 0.623792 0.322132
vt 0.626190 0.335281
vt 0.618335 0.307741
vt 0.632935 0.314093
vt 0.794686 0.334550
vt 0.795388 0.314993
vt 0.807273 0.315520
vt 0.806553 0.335580
vt 0.620149 0.348787
vt 0.634480 0.340961
vt 0.748283 0.319039
vt 0.747244 0.339962
vt 0.735059 0.338518
vt 0.736446 0.319840
vt 0.735270 0.353907
vt 0.721020 0.344453
vt 0.895657 0.319543
vt 0.894960 0.339100
vt 0.883073 0.338578
vt 0.883791 0.318518
vt 0.736754 0.304453
vt 0.721924 0.313034
vt 0.825872 0.315727
vt 0.825266 0.334682
vt 0.654974 0.335326
vt 0.654711 0.340678
vt 0.654996 0.319998
vt 0.654815 0.314614
vt 0.864440 0.337915
vt 0.864750 0.318076
vt 0.699137 0.319784
vt 0.698873 0.314083
vt 0.698891 0.336506
vt 0.698381 0.342195
vt 0.676304 0.314700
vt 0.676590 0.320183
vt 0.844460 0.316885
vt 0.844259 0.336211
vt 0.675860 0.335874
vt 0.675444 0.341323
vt 0.915675 0.527621
vt 0.870718 0.524702
vt 0.843338 0.409182
vt 0.882427 0.385703
vt 0.954032 0.503472
vt 0.927188 0.389276
vt 0.835232 0.495105
vt 0.825143 0.450610
vt 0.961386 0.418311
vt 0.971434 0.461790
vn -0.088270 0.112091 -0.989770
vn -0.137296 0.038800 -0.989770
vn -0.137296 0.038800 -0.989770
vn -0.088269 0.112091 -0.989770
vn -0.005526 0.142567 -0.989770
vn -0.005526 0.142567 -0.989770
vn 0.079328 0.118587 -0.989770
vn 0.079328 0.118587 -0.989770
vn 0.133881 0.049311 -0.989770
vn 0.133881 0.049311 -0.989770
vn 0.137296 -0.038799 -0.989770
vn 0.137296 -0.038799 -0.989770
vn 0.088269 -0.112091 -0.989770
vn 0.088269 -0.112091 -0.989770
vn 0.005526 -0.142567 -0.989770
vn 0.005526 -0.142567 -0.989770
vn -0.079328 -0.118587 -0.989770
vn -0.079328 -0.118587 -0.989770
vn -0.133881 -0.049311 -0.989770
vn -0.133881 -0.049311 -0.989770
vn 0.618679 -0.785644 -0.000000
vn 0.962312 -0.271948 -0.000000
vn 0.962312 -0.271948 -0.000000
vn 0.618680 -0.785643 -0.000000
vn 0.038732 -0.999250 0.000001
vn 0.038733 -0.999250 0.000001
vn -0.556009 -0.831176 0.000002
vn -0.556009 -0.831177 0.000002
vn -0.938374 -0.345622 0.000001
vn -0.938374 -0.345622 0.000001
vn -0.962312 0.271948 0.000002
vn -0.962312 0.271948 0.000002
vn -0.618680 0.785643 0.000001
vn -0.618679 0.785644 0.000001
vn -0.038733 0.999250 -0.000000
vn -0.038732 0.999250 -0.000000
vn 0.556009 0.831176 -0.000000
vn 0.556009 0.831176 -0.000000
vn 0.938374 0.345622 0.000000
vn 0.938374 0.345622 0.000000
vn 0.223752 -0.284135 0.932310
vn 0.348029 -0.098353 0.932310
vn 0.294494 -0.087818 0.951610
vn 0.185635 -0.235732 0.953924
vn 0.014008 -0.361388 0.932310
vn 0.011622 -0.299825 0.953924
vn -0.201086 -0.300603 0.932310
vn -0.166831 -0.249395 0.953923
vn -0.339372 -0.124998 0.932310
vn -0.288963 -0.110352 0.950959
vn -0.348030 0.098353 0.932310
vn -0.296780 0.088004 0.950882
vn -0.223752 0.284136 0.932310
vn -0.185635 0.235732 0.953923
vn -0.014008 0.361389 0.932310
vn -0.011621 0.299825 0.953924
vn 0.201086 0.300603 0.932310
vn 0.166830 0.249394 0.953924
vn 0.339371 0.124997 0.932311
vn 0.286781 0.110234 0.951633
vn 0.092318 -0.050769 0.994434
vn 0.085223 -0.108221 0.990467
vn 0.006413 -0.165458 0.986196
vn -0.076590 -0.114494 0.990467
vn -0.084236 -0.063672 0.994410
vn -0.612477 -0.007123 0.790456
vn -0.631031 -0.007207 0.775724
vn -0.169245 -0.005363 0.985559
vn -0.167372 -0.005386 0.985879
vn -0.090044 0.056125 0.994355
vn -0.085223 0.108222 0.990467
vn -0.006413 0.165459 0.986196
vn 0.076590 0.114495 0.990467
vn 0.086439 0.058898 0.994515
vn 0.647970 0.016058 0.761496
vn 0.633824 0.015771 0.773317
vn 0.202763 0.007809 0.979197
vn 0.204001 0.007816 0.978940
vn -0.264498 -0.077940 0.961232
vn -0.272589 0.059607 0.960282
vn 0.383660 -0.447247 0.807945
vn 0.296021 0.429755 0.853043
vn 0.265402 0.066263 0.961858
vn 0.262472 -0.046545 0.963816
vn -0.366979 0.470049 0.802733
vn -0.404480 -0.495085 0.768952
vn -0.999974 -0.007234 -0.000000
vn -0.999974 -0.007234 -0.000000
vn 0.078232 -0.996935 0.000000
vn 0.055256 -0.998472 0.000000
vn 0.728810 0.028516 -0.684121
vn 0.751774 0.029396 -0.658765
vn -0.066761 0.997769 0.000000
vn -0.067434 0.997724 0.000000
vn 0.999754 0.022163 -0.000002
vn 0.999754 0.022163 -0.000002
vn -0.051205 0.998688 0.000002
vn -0.040002 0.999200 0.000000
vn -0.999250 -0.038732 -0.000002
vn -0.999250 -0.038732 -0.000002
vn -0.084680 -0.996408 -0.000000
vn -0.046902 -0.998900 0.000001
vn 0.105484 -0.994421 0.000001
vn 0.055256 -0.998472 0.000000
vn -0.066761 0.997769 0.000000
vn -0.068219 0.997670 0.000000
vn -0.065461 0.997855 0.000003
vn -0.040003 0.999200 0.000004
vn -0.084680 -0.996408 0.000002
vn 0.001906 -0.999998 0.000002
vn 0.116319 0.005515 -0.993197
vn 0.117310 0.005535 -0.993080
vn -0.054101 0.998535 -0.000000
vn -0.056140 0.998423 -0.000000
vn -0.114020 -0.005446 0.993464
vn -0.113273 -0.005437 0.993549
vn 0.083698 -0.996491 0.000002
vn 0.076126 -0.997098 0.000003
vn -0.142782 -0.007459 -0.989726
vn -0.142782 -0.007459 -0.989726
vn -0.112128 -0.006569 -0.993672
vn -0.111490 -0.006551 -0.993744
vn 0.036505 -0.999334 0.000003
vn 0.038360 -0.999264 0.000002
vn 0.108686 0.006354 0.994056
vn 0.109382 0.006377 0.993979
vn -0.062585 0.998040 0.000001
vn -0.060064 0.998195 0.000001
vn 0.026292 -0.999654 0.000003
vn 0.026287 -0.999654 0.000003
vn -0.002097 -0.000583 -0.999998
vn -0.006105 -0.000841 -0.999981
vn 0.000520 0.000477 1.000000
vn -0.003488 0.000221 0.999994
vn -0.042595 0.999092 -0.000001
vn -0.042589 0.999093 -0.000001
vn -0.000000 0.000001 -1.000000
vn -0.000000 0.000001 -1.000000
vn -0.000000 0.000001 -1.000000
vn -0.000000 0.000001 -1.000000
vn 0.000000 -0.000001 -1.000000
vn 0.000000 -0.000001 -1.000000
vn 0.000000 -0.000001 -1.000000
vn 0.000000 -0.000001 -1.000000
vn -0.000001 0.000001 -1.000000
vn -0.000001 0.000001 -1.000000
vn -0.000001 0.000001 -1.000000
vn -0.000001 0.000001 -1.000000
vn 0.000000 -0.000001 -1.000000
vn 0.000000 -0.000001 -1.000000
vn 0.000000 -0.000001 -1.000000
vn 0.000000 -0.000001 -1.000000
vn 0.186970 0.007248 -0.982339
vn 0.186970 0.007248 -0.982339
vn 0.186970 0.007248 -0.982339
vn 0.186970 0.007248 -0.982339
vn -0.183966 -0.144869 -0.972198
vn -0.183966 -0.144869 -0.972198
vn -0.183966 -0.144869 -0.972198
vn -0.183966 -0.144869 -0.972198
vn 0.147002 0.115761 -0.982339
vn 0.147002 0.115761 -0.982339
vn 0.147002 0.115761 -0.982339
vn 0.147002 0.115761 -0.982339
vn -0.233983 -0.009070 -0.972198
vn -0.233983 -0.009070 -0.972198
vn -0.233983 -0.009070 -0.972198
vn -0.233983 -0.009070 -0.972198
vn 0.161753 -0.108202 -0.980881
vn 0.161753 -0.108202 -0.980881
vn 0.161753 -0.108202 -0.980881
vn 0.161753 -0.108202 -0.980881
vn 0.071912 -0.195245 -0.978115
vn 0.071912 -0.195245 -0.978115
vn 0.071912 -0.195245 -0.978115
vn 0.071912 -0.195245 -0.978115
vn -0.060774 -0.215053 -0.974710
vn -0.060774 -0.215053 -0.974710
vn -0.060774 -0.215053 -0.974710
vn -0.060774 -0.215053 -0.974710
vn -0.185747 0.124254 -0.974710
vn -0.185747 0.124254 -0.974710
vn -0.185747 0.124254 -0.974710
vn -0.185747 0.124254 -0.974710
vn -0.071913 0.195244 -0.978115
vn -0.071913 0.195244 -0.978115
vn -0.071913 0.195244 -0.978115
vn -0.071913 0.195244 -0.978115
vn 0.052924 0.187272 -0.980881
vn 0.052924 0.187272 -0.980881
vn 0.052924 0.187272 -0.980881
vn 0.052924 0.187272 -0.980881
s 1
g lid
usemtl initialShadingGroup
f 2/1/1 1/2/2 11/3/3 12/4/4
f 3/5/5 2/1/1 12/4/4 13/6/6
f 4/7/7 3/5/5 13/6/6 14/8/8
f 5/9/9 4/7/7 14/8/8 15/10/10
f 6/11/11 5/9/9 15/10/10 16/12/12
f 7/13/13 6/11/11 16/12/12 17/14/14
f 8/15/15 7/13/13 17/14/14 18/16/16
f 9/17/17 8/15/15 18/16/16 19/18/18
f 10/19/19 9/17/17 19/18/18 20/20/20
f 1/2/2 10/19/19 20/20/20 11/3/3
s 2
f 12/4/21 11/3/22 21/21/23 22/22/24
f 13/6/25 12/4/21 22/22/24 23/23/26
f 14/8/27 13/6/25 23/23/26 24/24/28
f 15/10/29 14/8/27 24/24/28 25/25/30
f 16/12/31 15/10/29 25/25/30 26/26/32
f 17/14/33 16/12/31 26/26/32 27/27/34
f 18/16/35 17/14/33 27/27/34 28/28/36
f 19/18/37 18/16/35 28/28/36 29/29/38
f 20/20/39 19/18/37 29/29/38 30/30/40
f 11/3/22 20/20/39 30/30/40 21/21/23
s 3
f 22/31/41 21/32/42 31/33/43 32/34/44
f 23/35/45 22/31/41 32/34/44 33/36/46
f 24/37/47 23/35/45 33/36/46 34/38/48
f 25/39/49 24/37/47 34/38/48 35/40/50
f 26/41/51 25/39/49 35/40/50 36/42/52
f 27/43/53 26/41/51 36/42/52 37/44/54
f 28/45/55 27/43/53 37/44/54 38/46/56
f 29/47/57 28/45/55 38/46/56 39/48/58
f 30/49/59 29/47/57 39/48/58 40/50/60
f 21/32/42 30/49/59 40/50/60 31/33/43
f 32/34/44 31/33/43 41/51/61 42/52/62
f 33/36/46 32/34/44 42/52/62 43/53/63
f 34/38/48 33/36/46 43/53/63 44/54/64
f 35/40/50 34/38/48 44/54/64 45/55/65
f 68/56/66 67/57/67 69/58/68 70/59/69
f 37/44/54 36/42/52 46/60/70 47/61/71
f 38/46/56 37/44/54 47/61/71 48/62/72
f 39/48/58 38/46/56 48/62/72 49/63/73
f 40/50/60 39/48/58 49/63/73 50/64/74
f 72/65/75 71/66/76 73/67/77 74/68/78
f 46/60/70 45/55/65 41/51/61 50/64/74
f 47/61/71 46/60/70 50/64/74 49/63/73
f 48/62/72 47/61/71 49/63/73
f 45/55/65 44/54/64 42/52/62 41/51/61
f 43/53/63 42/52/62 44/54/64
f 36/42/52 35/40/50 51/69/79 52/70/80
f 35/40/50 45/55/65 53/71/81 51/69/79
f 45/55/65 46/60/70 54/72/82 53/71/81
f 46/60/70 36/42/52 52/70/80 54/72/82
f 31/33/43 40/50/60 55/73/83 56/74/84
f 40/50/60 50/64/74 57/75/85 55/73/83
f 50/64/74 41/51/61 58/76/86 57/75/85
f 41/51/61 31/33/43 56/74/84 58/76/86
f 52/77/80 51/78/79 59/79/87 60/80/88
f 51/78/79 53/81/81 61/82/89 59/79/90
f 53/83/81 54/84/82 62/85/91 61/86/92
f 54/87/82 52/77/80 60/80/93 62/88/94
f 56/89/84 55/90/83 63/91/95 64/92/96
f 55/90/83 57/93/85 65/94/97 63/91/98
f 57/95/85 58/96/86 66/97/99 65/98/100
f 58/99/86 56/89/84 64/92/101 66/100/102
f 60/80/88 59/79/87 67/57/67 68/56/66
f 59/79/90 61/82/89 69/58/103 67/57/104
f 62/88/94 60/80/93 68/56/105 70/59/106
f 64/92/96 63/91/95 71/66/76 72/65/75
f 63/91/98 65/94/97 73/67/107 71/66/108
f 66/100/102 64/92/101 72/65/109 74/68/110
f 61/86/92 62/85/91 76/101/111 75/102/112
f 62/88/94 70/59/106 77/103/113 76/104/114
f 70/59/69 69/58/68 78/105/115 77/103/116
f 69/58/103 61/82/89 75/106/117 78/105/118
f 65/98/119 66/97/120 80/107/121 79/108/122
f 66/100/102 74/68/110 81/109/123 80/110/124
f 74/68/78 73/67/77 82/111/125 81/109/126
f 73/67/107 65/94/97 79/112/127 82/111/128
f 78/105/118 75/106/117 83/113/129 84/114/130
f 75/102/112 76/101/111 86/115/131 83/116/132
f 77/103/116 78/105/115 84/114/133 85/117/134
f 76/104/114 77/103/113 85/117/135 86/118/136
f 84/114/130 83/113/129 80/110/124 81/109/123
f 85/117/134 84/114/133 81/109/126 82/111/125
f 86/118/136 85/117/135 82/111/128 79/112/127
f 83/116/132 86/115/131 79/108/122 80/107/121
s off
f 87/119/137 88/120/138 89/121/139 90/122/140
f 91/123/141 87/119/142 90/122/143 92/124/144
f 88/120/145 93/125/146 94/126/147 89/121/148
f 92/124/149 95/127/150 96/128/151 91/123/152
f 5/9/153 6/11/154 88/120/155 87/119/156
f 9/17/157 10/19/158 90/122/159 89/121/160
f 4/7/161 5/9/162 87/119/163 91/123/164
f 10/19/165 1/2/166 92/124/167 90/122/168
f 6/11/169 7/13/170 93/125/171 88/120/172
f 7/13/173 8/15/174 94/126/175 93/125/176
f 8/15/177 9/17/178 89/121/179 94/126/180
f 1/2/181 2/1/182 95/127/183 92/124/184
f 2/1/185 3/5/186 96/128/187 95/127/188
f 3/5/189 4/7/190 91/123/191 96/128/192
